<?xml version="1.0" encoding="utf-8"?>
<!-- Generator: Adobe Illustrator 19.2.1, SVG Export Plug-In . SVG Version: 6.00 Build 0)  -->
<svg version="1.1" id="Layer_1" xmlns="http://www.w3.org/2000/svg" xmlns:xlink="http://www.w3.org/1999/xlink" x="0px" y="0px"
	 viewBox="0 0 36 36" style="enable-background:new 0 0 36 36;" xml:space="preserve">
<style type="text/css">
	.st0{fill:#FFFFFF;}
</style>
<path class="st0" d="M25,4.3C19-1.7,9.2-1.4,3.6,5c-4.7,5.4-4.8,13.6-0.1,19.1c4.8,5.7,12.9,6.7,18.9,3l8.2,8.2c0.8,0.8,2,0.8,2.7,0
	l2-2c0.8-0.8,0.8-2,0-2.7L27,22.3C30.5,16.7,29.9,9.2,25,4.3z M21.2,21.2c-3.7,3.7-9.6,3.7-13.2,0S4.3,11.7,8,8
	c3.7-3.7,9.6-3.7,13.2,0S24.9,17.6,21.2,21.2z"/>
</svg>
