<?xml version="1.0" encoding="utf-8"?>

<svg version="1.1" id="Layer_1" xmlns="http://www.w3.org/2000/svg" xmlns:xlink="http://www.w3.org/1999/xlink" x="0px" y="0px"
	 viewBox="0 0 186 27" style="enable-background:new 0 0 186 27;" xml:space="preserve">
<style type="text/css">
	.st0{fill:#FFFFFF;}
	.st1{opacity:0.5;}
	.st2{clip-path:url(#SVGID_2_);fill:#1D1D1B;}
	.st3{fill:#F7BB80;}
	.st4{fill:#6A5B5C;}
	.st5{fill:#6B5F55;}
	.st6{fill:#FF6D81;}
	.st7{fill:#FF6371;}
	.st8{fill:#543110;}
	.st9{fill:#D8D5D4;}
</style>
<g>
	<g>
		<g>
			<path class="st0" d="M41.6,17.5c0,0.8,0.2,1.2,0.9,1.2c1.1,0,1.4-1.3,1.4-1.3s0.4,0.1,0.5,0.8c0,0.2,0,0.3,0,0.4
				c0,1.6-1.6,2.9-3.6,2.9c-2.6,0-3.5-2-3.5-4.4v-5.3c-1.1,2.2-2,5.2-2.3,9.4H31c-0.4-4.5-1.3-7.6-2.5-9.8v9.8h-3.3V7.7
				c-0.5-0.3-0.9-0.5-1.3-0.7c0,0,0-1.3,2.2-1.3c2.7,0,5.7,1.8,7.4,6.4c1.4-4.6,3.8-6.4,6.4-6.4c2.2,0,2.5,1.4,2.5,1.4
				c-0.3,0.1-0.5,0.2-0.8,0.3V17.5z"/>
			<path class="st0" d="M48,7.7c0,1.1-0.9,1.9-2.1,1.9s-2.1-0.8-2.1-1.9c0-1.1,0.8-1.9,2.1-1.9S48,6.6,48,7.7 M47.9,10.1v7.4
				c0,0.7,0.2,1.2,0.9,1.2c1.1,0,1.4-1.3,1.4-1.3s0.5,0.2,0.5,1.3c0,1.6-1.6,2.9-3.4,2.9c-2.3,0-3.4-1.7-3.4-4.3v-6.6L47.9,10.1z"/>
			<path class="st0" d="M58.6,12.3c0,1.2-1,1.7-1,1.7c-0.2-0.6-1-1.3-1.8-1.3c-0.5,0-0.7,0.3-0.7,0.6c0,1.3,3.8,1.3,3.8,4.5
				c0,2.1-1.9,3.8-4.9,3.8c-2.9,0-4.5-1.8-4.5-3.6c0-1.3,0.8-2,2-2c1.1,0,1.9,0.8,1.9,0.8s-0.6,0.4-0.6,1.1c0,0.8,0.4,1.2,1.1,1.2
				c0.6,0,1.1-0.4,1.1-1.1c0-2.1-4.2-2.1-4.2-4.9c0-2,1.5-3.2,4.1-3.2C57.5,10,58.6,11,58.6,12.3"/>
			<path class="st0" d="M67.8,12.3c0,1.2-1,1.7-1,1.7c-0.2-0.6-1-1.3-1.8-1.3c-0.5,0-0.7,0.3-0.7,0.6c0,1.3,3.8,1.3,3.8,4.5
				c0,2.1-1.9,3.8-4.9,3.8c-2.9,0-4.5-1.8-4.5-3.6c0-1.3,0.8-2,2-2c1.1,0,1.9,0.8,1.9,0.8s-0.6,0.4-0.6,1.1c0,0.8,0.4,1.2,1.1,1.2
				c0.6,0,1.1-0.4,1.1-1.1c0-2.1-4.2-2.1-4.2-4.9c0-2,1.5-3.2,4.1-3.2C66.6,10,67.8,11,67.8,12.3"/>
		</g>
		<g>
			<path class="st0" d="M89,17.5c0,0.8,0.2,1.2,0.9,1.2c1.1,0,1.4-1.3,1.4-1.3s0.4,0.1,0.5,0.8c0,0.2,0,0.3,0,0.4
				c0,1.6-1.6,2.9-3.6,2.9c-2.6,0-3.5-2-3.5-4.4v-5.3c-1.1,2.2-2,5.2-2.3,9.4h-4.1c-0.4-4.5-1.3-7.6-2.5-9.8v9.8h-3.3V7.8
				c-0.5-0.3-0.9-0.5-1.3-0.7c0,0,0-1.3,2.2-1.3c2.7,0,5.7,1.8,7.4,6.4c1.4-4.6,3.8-6.4,6.4-6.4c2.2,0,2.5,1.4,2.5,1.4
				c-0.3,0.1-0.5,0.2-0.8,0.3V17.5z"/>
			<path class="st0" d="M100.9,17.5c0,0.8,0.1,1.2,0.9,1.2c1.1,0,1.3-1.3,1.3-1.3s0.5,0.2,0.5,1.3c0,1.5-1.3,2.8-3.2,2.8
				c-1.9,0-2.7-1.1-3.1-2.2c0,0-0.8,2.2-3.4,2.2c-1.7,0-2.9-1.3-2.9-3.2c0-2.9,2.4-3.9,6-3.9c0-0.9-0.4-1.3-1.5-1.3
				c-1.4,0-2.6,0.7-3.2,1.7c0,0-0.8-0.4-0.8-1.5c0-2,2.1-3.2,5-3.2c2.9,0,4.2,1.4,4.2,3.9V17.5z M97.1,16.2
				c-1.9,0.1-2.5,0.9-2.5,1.7c0,0.5,0.3,0.9,0.8,0.9c1.2,0,1.7-1,1.7-1.9V16.2z"/>
			<path class="st0" d="M112.7,17.7c0,2-1.8,3.9-5.2,3.9c-3.2,0-4.7-2.4-4.7-6.7c0-5.3,1.5-9,5.1-9c2.4,0,3.4,1.6,3.4,4
				c0,2.9-1.6,6-4.1,7.6c0.4,1,1.1,1.3,2.1,1.3c2.1,0,2.9-1.7,3.1-2.3C112.3,16.5,112.7,16.8,112.7,17.7 M106.7,14.4
				c0,0.3,0,0.7,0,1c1.6-1.2,2.3-3.7,2.3-5.4c0-0.9-0.2-1.5-0.7-1.5C107.1,8.4,106.7,11.4,106.7,14.4"/>
			<path class="st0" d="M116.3,7.8c0,1.1-0.9,1.9-2.1,1.9c-1.2,0-2.1-0.8-2.1-1.9s0.8-1.9,2.1-1.9C115.5,5.9,116.3,6.7,116.3,7.8
				 M116.2,10.2v7.4c0,0.7,0.2,1.2,0.9,1.2c1.1,0,1.4-1.3,1.4-1.3s0.5,0.2,0.5,1.3c0,1.6-1.6,2.9-3.4,2.9c-2.3,0-3.4-1.7-3.4-4.3
				v-6.6L116.2,10.2z"/>
			<path class="st0" d="M122.6,12.3c0,0,0.8-2.3,3.2-2.3c2,0,3,1.3,3,3.4c0,1.3-0.4,3-0.4,4.3c0,0.6,0.3,1,1,1
				c1.1,0,1.4-1.3,1.4-1.3s0.5,0.2,0.5,1.3c0,1.6-1.5,2.9-3.4,2.9c-2.1,0-3.4-1.3-3.4-3.5c0-1.2,0.3-2.6,0.3-3.8c0-0.7-0.4-1-0.9-1
				c-0.7,0-1.3,0.6-1.3,1.7v6.3h-4V10.7l4-0.5V12.3z"/>
			<path class="st0" d="M134.9,7.8c0,1.1-0.9,1.9-2.1,1.9c-1.2,0-2.1-0.8-2.1-1.9s0.8-1.9,2.1-1.9C134,5.9,134.9,6.7,134.9,7.8
				 M134.7,10.2v7.4c0,0.7,0.2,1.2,0.9,1.2c1.1,0,1.4-1.3,1.4-1.3s0.5,0.2,0.5,1.3c0,1.6-1.6,2.9-3.4,2.9c-2.3,0-3.4-1.7-3.4-4.3
				v-6.6L134.7,10.2z"/>
		</g>
		<g>
			<path class="st0" d="M144.5,19.7c0,1.1-0.9,1.9-2.1,1.9c-1.2,0-2.1-0.8-2.1-1.9c0-1.1,0.8-1.9,2.1-1.9
				C143.6,17.9,144.5,18.6,144.5,19.7"/>
			<path class="st0" d="M156.5,12.8l-2.2,1.2c-0.4-0.4-0.8-0.7-1.2-0.9c-0.4-0.2-0.9-0.3-1.4-0.3c-1,0-1.8,0.3-2.4,0.9
				c-0.6,0.6-0.9,1.4-0.9,2.3c0,0.9,0.3,1.7,0.9,2.2c0.6,0.6,1.4,0.9,2.4,0.9c1.2,0,2.1-0.4,2.8-1.2l2.1,1.4
				c-1.1,1.5-2.8,2.2-4.9,2.2c-1.9,0-3.4-0.6-4.4-1.7c-1.1-1.1-1.6-2.4-1.6-3.9c0-1,0.3-2,0.8-2.9c0.5-0.9,1.2-1.6,2.2-2.1
				c0.9-0.5,2-0.7,3.1-0.7c1.1,0,2,0.2,2.9,0.6C155.2,11.4,155.9,12,156.5,12.8"/>
			<path class="st0" d="M162.2,10.3c1,0,2,0.3,2.8,0.8c0.9,0.5,1.6,1.2,2.1,2.1c0.5,0.9,0.7,1.8,0.7,2.8c0,1-0.3,2-0.8,2.8
				c-0.5,0.9-1.2,1.6-2,2.1c-0.9,0.5-1.8,0.7-2.9,0.7c-1.5,0-2.8-0.5-3.9-1.6c-1.1-1.1-1.6-2.4-1.6-4c0-1.7,0.6-3.1,1.8-4.2
				C159.5,10.8,160.8,10.3,162.2,10.3 M162.2,12.8c-0.8,0-1.5,0.3-2.1,0.9c-0.6,0.6-0.8,1.3-0.8,2.2c0,0.9,0.3,1.7,0.8,2.3
				c0.5,0.6,1.2,0.9,2.1,0.9c0.8,0,1.5-0.3,2.1-0.9c0.6-0.6,0.8-1.3,0.8-2.2c0-0.9-0.3-1.7-0.8-2.2
				C163.8,13.1,163.1,12.8,162.2,12.8"/>
			<path class="st0" d="M169,10.6h2.7v1.2c0.5-0.5,1-0.9,1.5-1.1c0.6-0.2,1.2-0.4,1.8-0.4c0.7,0,1.3,0.2,1.8,0.5
				c0.5,0.3,1,0.8,1.3,1.4c0.4-0.6,0.9-1.1,1.6-1.4c0.6-0.3,1.3-0.5,2-0.5c0.8,0,1.4,0.2,2,0.5c0.6,0.4,1,0.8,1.2,1.4
				c0.3,0.6,0.4,1.5,0.4,2.8v6.3h-2.7v-5.4c0-1.2-0.2-2-0.5-2.5c-0.3-0.4-0.8-0.6-1.4-0.6c-0.5,0-0.9,0.1-1.2,0.4
				c-0.4,0.3-0.6,0.6-0.8,1.1c-0.2,0.5-0.3,1.2-0.3,2.2v4.8h-2.7v-5.2c0-1-0.1-1.6-0.2-2.1c-0.1-0.4-0.4-0.7-0.6-1
				c-0.3-0.2-0.6-0.3-1-0.3c-0.4,0-0.9,0.1-1.2,0.4c-0.4,0.3-0.6,0.6-0.8,1.1c-0.2,0.5-0.3,1.2-0.3,2.3v4.8H169V10.6z"/>
		</g>
	</g>
	<g>
		<g class="st1">
			<g>
				<defs>
					<rect id="SVGID_1_" x="3" y="23.9" width="1" height="0.5"/>
				</defs>
				<clipPath id="SVGID_2_">
					<use xlink:href="#SVGID_1_"  style="overflow:visible;"/>
				</clipPath>
				<path class="st2" d="M3,24v-0.1h0.4V24H3.3v0.3H3.2V24H3z M3.7,23.9l0.1,0.3l0.1-0.3H4v0.5H3.9V24l-0.1,0.3H3.7L3.6,24v0.3H3.5
					v-0.5H3.7z"/>
			</g>
		</g>
		<path class="st3" d="M10.8,0.5c-6,0-11.2,5.6-8.4,12.6C8.1,28.1,3,25.1,3,25.1h0c0,0,0.1,0.1,0.3,0.2c0,0,0,0,0,0c0,0,0,0,0.1,0.1
			c0,0,0,0,0,0c0.1,0.1,0.2,0.2,0.4,0.3c0,0,0,0,0,0c0,0,0.1,0,0.1,0.1c0,0,0,0,0,0c0,0,0.1,0,0.1,0.1c0,0,0,0,0,0
			c0.1,0.1,0.3,0.2,0.4,0.3c0,0,0,0,0,0c0,0,0,0,0,0c0,0,0,0,0,0c0,0,0.1,0,0.1,0.1c0,0,0,0,0,0c0,0,0.1,0,0.1,0.1c0,0,0,0,0,0
			c0.2,0.1,0.3,0.1,0.5,0.2c0,0,0,0,0,0c0,0,0.1,0,0.1,0c0,0,0,0,0.1,0c0,0,0.1,0,0.1,0c0,0,0,0,0.1,0c0,0,0.1,0,0.1,0
			c0,0,0,0,0.1,0c0.1,0,0.1,0.1,0.2,0.1c0,0,0,0,0.1,0c0,0,0,0,0.1,0c1.6,0.5,3.1,0.6,4.4,0.4c0.6-0.1,1.3-0.3,2-0.6
			c0.8-0.3,1.4-0.7,2-1.1c0,0,0,0,0,0c0,0,0,0,0,0c0.1-0.1,0.2-0.2,0.4-0.3C14.9,25.1,15,25,15,25c0.1-0.1,0.3-0.3,0.5-0.4
			c0.4-0.4,0.6-0.7,0.7-0.7c0.3-0.4,0.7-0.8,1-1.3c0,0,0.1-0.1,0.1-0.1c0,0,0.1-0.1,0.1-0.1c0.1-0.1,0.1-0.2,0.2-0.3
			c0.8-1.2,1.5-2.6,1.9-4.7c1.2-5.3-0.3-12.7-5.8-15.9c-0.5-0.3-0.9-0.6-1.5-0.8c-0.8-0.3-1.8,0.2-2.8,0.2"/>
		<path class="st4" d="M13.3,8.8C13.3,8.8,13.3,8.8,13.3,8.8"/>
		<path class="st5" d="M10.8,11.5c0,0,1-1.5,2.2-2c1-0.4,2.1-0.2,2.1-0.2s-0.8-0.6-1.8-0.4C12.1,9.3,10.9,11,10.8,11.5"/>
		<path class="st5" d="M8.6,13.6c0.2,0.2,0.6,0.8,0.8,1.4c0.1,0.4,0,1.2,0,1.2c0.1-0.1,0.2-0.4,0.1-1C9.5,14.3,8.6,13.6,8.6,13.6"/>
		<path class="st5" d="M9.3,17.2c0.3,0,0.7,0.3,0.7,0.3l0.2-0.1C9.8,17.2,9.3,17.2,9.3,17.2"/>
		<path class="st6" d="M8,19.6c0.1,0.1,0.3,0.1,0.4,0.2c0.1,0.1,0.5,0.3,0.7,0.6c0.5,0.5,1.1,0.9,2.1,0.7c0.6-0.2,1-0.6,1.4-1.3
			c0.3-0.5,0.3-0.8,0.6-1.2c0.4-0.4,0.4-0.8,0.4-0.7c-0.1,0.1-0.9,0.9-1.8,0.8c-0.8-0.1-1-0.2-1-0.1c-0.1,0.1-0.3,0.4-0.5,0.3
			c-0.3-0.1-0.5-0.1-0.5,0c0,0.1-0.3,0.5-1.2,0.7C8.2,19.7,8,19.6,8,19.6 M9.8,19.7c0.2-0.1,0.7-0.3,1.5-0.3c0.2,0,0.4-0.1,0.6-0.1
			c-0.1,0.1-0.2,0.2-0.2,0.2c-0.8,0.7-2.1,0.4-2.3,0.4C9.6,19.8,9.7,19.8,9.8,19.7"/>
		<path class="st4" d="M8.1,14.9C8.1,14.9,8.1,14.9,8.1,14.9C8.1,14.9,8.1,14.9,8.1,14.9"/>
		<path class="st5" d="M14.8,10.9c-0.1,0-0.3-0.1-0.4-0.1c-0.3-0.1-0.8-0.1-1.2,0c0,0-1,0.3-1.7,1.7c0,0,0.9-1,1.5-1.3
			C13.6,11,14.4,11,14.8,10.9c0.1,0.1,0.2,0.1,0.1,0C14.9,11,15,11,14.8,10.9"/>
		<path class="st7" d="M11.1,14.1c0,0,0.1-0.2,0.1-0.2c0.2-0.2,0.3-0.7,0.5-1.2c0.5-0.9,1.2-1.4,2.2-1.5c0.1,0,0.7,0,1-0.1
			c0.6-0.2,0.8-0.8,0.8-0.7c-0.1,0.4-0.3,1.8-2.1,1.3C13,11.6,12,12.8,12,12.8S11.4,14,11.1,14.1"/>
		<path class="st7" d="M8,14.9l-0.2-0.2c-0.4-0.3-0.7-0.9-1.5-1.2c-0.4-0.1-0.8-0.1-1.3,0c-0.3,0.1-0.8,0.4-1.5-0.1
			C2.7,13,2.8,14.8,5,13.9c0.6-0.2,1.9,0.3,1.9,0.3S7.6,15,8,14.9"/>
		<path class="st5" d="M11.1,14.1c0.1,0,0.3-0.1,0.4-0.2c0.4,0.1,1.1,0.2,2-0.3c0.7-0.4,0.9-1,0.9-1.3c0.8-0.2,0.8-0.7,0.8-0.7
			c0,0-0.4,0.3-1.4,0.2c-0.9-0.1-1.9,0.5-2.2,1.4C11.4,14.1,11.1,14.1,11.1,14.1 M12.6,12.9c0,0,0-0.1,0-0.1
			c0.1-0.1,0.3-0.2,0.4-0.2c-0.1,0.3-0.2,0.6,0,1c0,0,0,0-0.1,0C12.8,13.4,12.6,13.2,12.6,12.9 M14.1,12.3
			C14.1,12.3,14.2,12.3,14.1,12.3c0,0.2-0.2,0.5-0.5,0.7c0-0.2-0.1-0.5-0.3-0.6C13.6,12.3,13.8,12.3,14.1,12.3 M12,13.3
			c0.1-0.1,0.1-0.2,0.2-0.3c0,0.3,0.1,0.5,0.4,0.6c-0.4,0.1-0.7,0.1-0.9,0.2C11.7,13.6,11.9,13.5,12,13.3"/>
		<path class="st8" d="M12.2,0.6C11.4,0.3,10.2,0,9.2,0C5.2,0,0.6,3.2,0,10.1C-0.6,18.7,5.8,22,4.8,24.3c-0.3,0.7-0.8,0.9-1.2,0.9
			c-0.3,0-0.6-0.1-0.6-0.1c0,0,0.1,0.1,0.3,0.3c0,0,0,0,0,0c0,0,0,0,0.1,0.1c0,0,0,0,0,0c0.1,0.1,0.2,0.2,0.4,0.3c0,0,0,0,0,0
			c0,0,0.1,0,0.1,0.1c0,0,0,0,0,0c0,0,0.1,0,0.1,0.1c0,0,0,0,0,0c0.1,0.1,0.3,0.2,0.4,0.3c0,0,0,0,0,0c0,0,0.1,0,0.1,0.1
			c0,0,0,0,0,0c0,0,0.1,0,0.1,0.1c0,0,0,0,0,0c0.2,0.1,0.3,0.1,0.5,0.2c0,0,0,0,0,0c0,0,0.1,0,0.1,0c0,0,0,0,0.1,0c0,0,0.1,0,0.1,0
			c0,0,0,0,0.1,0c0,0,0.1,0,0.1,0c0,0,0,0,0.1,0c0.1,0,0.2,0,0.3,0c0.3,0,0.7,0,1-0.1c3.1-0.7,2.9-3.4,2.9-3.4s-1.5-0.7-3-2
			c-1.8-1.6-3.1-5.1-2.6-6.7c0,0,0,0,0,0c0.2,0.3,0.5,0.8,1.4,0.8c0.8,0,1.6-0.4,1.8-0.6c0.2,0.1,0.4,0.1,0.5,0
			c-0.1,0-0.3,0.1-0.9-0.5c-0.7-0.7-1.7-0.8-2.5-0.4c0,0,0,0-0.1,0c0.1-0.2,0.2-0.4,0.3-0.6c0.2,0,0.4-0.1,0.5-0.1
			c0.8-0.1,1.7,0.4,1.7,0.4c-0.8-0.7-1.6-0.6-2-0.6c0.2-0.3,0.4-0.6,0.6-1c0.4,0,0.8,0,1.5,0.1c0,0-0.3-0.4-1.3-0.5
			c2-2.9,4.2-4.8,5.9-5.7c1.2-0.7,2-0.8,2-0.8s0.7,0.3,1.8,4.5c1.6,6.2,0,9.8-1.7,11.7c-1.7,1.9-2.8,2.4-2.8,2.4l-0.5-0.2l0.7,0.4
			c0.3-0.3,2.8-1.7,3.5-0.9c0.9,1-0.6,2.5-0.6,2.5c0,0,0,0,0,0c0,0,0.1,0,0.1-0.1c0.2-0.1,0.4-0.3,0.7-0.5c0.6-0.5,1.4-1.3,2.1-2.4
			c0,0,0.1-0.1,0.1-0.1c0,0,0.1-0.1,0.1-0.1c0.1-0.1,0.1-0.2,0.2-0.3c0.8-1.2,1.5-2.7,2-4.8C20.9,11.5,18.9,3.3,12.2,0.6 M6.1,14.3
			C6.1,14.3,6.1,14.3,6.1,14.3C6.1,14.3,6.1,14.3,6.1,14.3C6.1,14.3,6.1,14.3,6.1,14.3C6.1,14.3,6.1,14.3,6.1,14.3
			C6.1,14.3,6.1,14.3,6.1,14.3C6.1,14.3,6.1,14.4,6.1,14.3C6.1,14.4,6.1,14.3,6.1,14.3c-0.1,0.3-0.2,0.6-0.1,0.9c0,0,0,0,0,0
			c-0.1-0.2-0.3-0.4-0.3-0.8c0,0,0-0.1,0-0.1C5.8,14.3,5.9,14.3,6.1,14.3 M7.5,14.8c-0.2,0.1-0.6,0.2-1,0.3c0.2-0.2,0.2-0.4,0.2-0.7
			c0.1,0,0.2,0.1,0.2,0.1C7.1,14.7,7.3,14.8,7.5,14.8 M4.7,14.5c0.2-0.1,0.4-0.1,0.6-0.2c-0.1,0.2-0.1,0.3,0,0.5
			c0,0.1,0.1,0.2,0.1,0.2C5.1,14.9,4.8,14.7,4.7,14.5C4.7,14.5,4.7,14.5,4.7,14.5 M4.6,14c0,0-0.1,0-0.1,0.1c0-0.2,0.1-0.4,0.1-0.6
			c0.1,0,0.2,0,0.2-0.1C4.7,13.6,4.6,13.9,4.6,14 M5,13.1c-0.1,0-0.1,0-0.1,0c-0.1,0-0.1,0-0.2,0.1c0.1-0.3,0.2-0.7,0.3-1
			c0.1,0,0.3,0,0.4-0.1C5.2,12.5,5.1,12.8,5,13.1 M5.7,11.7c-0.1,0-0.3,0-0.4,0C6.6,8.8,9,7,10.2,6.3C8.1,7.6,6.6,9.9,5.7,11.7"/>
		<path class="st9" d="M5.2,22.1C5.2,22.1,5.2,22.1,5.2,22.1C5.2,22.1,5.2,22.1,5.2,22.1L5.2,22.1L5.2,22.1c0.2,0,0.4-0.1,0.5-0.3
			c0.1-0.2,0.2-0.4,0.2-0.8V21l0,0l0,0h0l0,0.1c0,0.4,0.1,0.5,0.2,0.8c0.1,0.2,0.3,0.3,0.5,0.3h0v0c0,0,0,0,0,0c0,0,0,0,0,0v0h0
			c-0.2,0-0.4,0.1-0.5,0.3c-0.1,0.2-0.2,0.4-0.2,0.8v0.1h0h0h0v-0.1c0-0.4-0.1-0.5-0.2-0.8C5.6,22.2,5.4,22.1,5.2,22.1L5.2,22.1
			L5.2,22.1z"/>
		<path class="st9" d="M16.7,21.5L16.7,21.5L16.7,21.5c-0.2,0-0.5,0.1-0.6,0.4c-0.2,0.3-0.2,0.5-0.3,1v0.1h0l0,0h0v-0.1
			c0-0.5-0.1-0.7-0.3-1c-0.1-0.2-0.4-0.3-0.6-0.4h0l0,0c0,0,0,0,0,0c0,0,0,0,0,0l0,0h0c0.2,0,0.5-0.1,0.6-0.4c0.2-0.3,0.2-0.5,0.3-1
			v-0.1l0,0h0h0v0.1c0,0.5,0.1,0.7,0.3,1C16.2,21.3,16.5,21.5,16.7,21.5L16.7,21.5L16.7,21.5C16.7,21.5,16.7,21.5,16.7,21.5
			C16.7,21.5,16.7,21.5,16.7,21.5"/>
	</g>
</g>
</svg>
