<?xml version="1.0" encoding="utf-8"?>
<!-- Generator: Adobe Illustrator 19.2.1, SVG Export Plug-In . SVG Version: 6.00 Build 0)  -->
<svg version="1.1" id="Layer_1" xmlns="http://www.w3.org/2000/svg" xmlns:xlink="http://www.w3.org/1999/xlink" x="0px" y="0px"
	 viewBox="0 0 144 124" style="enable-background:new 0 0 144 124;" xml:space="preserve">
<style type="text/css">
	.st0{fill:#FBD2D2;}
	.st1{fill:#F9BBBB;}
	.st2{fill:#F7B132;}
	.st3{fill:#FFD798;}
	.st4{fill:#F19220;}
	.st5{fill:#E63247;}
	.st6{fill:#F19190;}
	.st7{fill:#794E1F;}
	.st8{fill:#FFFFFF;}
	.st9{fill:#E6E8E7;}
	.st10{fill:#D9DBDB;}
	.st11{fill:#FEC76E;}
</style>
<g>
	<g>
		<g>
			<circle class="st0" cx="71.3" cy="65.6" r="48.3"/>
			<path class="st1" d="M110.8,77.2v16.3c-1.8,2.5-3.8,4.8-6,7V77.2h0v-0.1c0-0.1-2.9-2.5-5.2-4.4v-1l2.7-0.7
				c1.1-0.3,2.3-0.2,3.3,0.3c0.5,0.2,1,0.4,1.4,0.6V74C109.4,75.9,110.8,77.1,110.8,77.2L110.8,77.2L110.8,77.2z"/>
		</g>
		<g>
			<g>
				<polygon class="st2" points="2.6,3.6 16.7,36.9 27.1,29.8 33.1,38.5 34.2,23.8 46.7,16.1 				"/>
				<polygon class="st3" points="29.4,28.2 16.7,36.9 27.1,29.8 33.1,38.5 34.2,23.8 14.2,11.9 				"/>
				<polygon class="st4" points="33.9,27.4 14.2,11.9 34.2,23.8 				"/>
			</g>
			<g>
				<path class="st5" d="M33.4,42.7c-0.1-0.6-0.3-1.3-0.4-1.9l1-0.3c0.2,0.7,0.3,1.3,0.4,2L33.4,42.7z"/>
				<path class="st5" d="M21.6,65.3c-1.5-0.1-2.9-0.6-4-1.3l0.6-0.8c1,0.7,2.3,1.1,3.6,1.2L21.6,65.3z M25.8,64.4l-0.4-0.9
					c1-0.5,2.1-1.3,3-2.4l0.7,0.7C28.1,63,27,63.9,25.8,64.4z M14.8,60.7c-0.6-1.2-0.9-2.4-0.9-3.7c0-0.1,0-0.2,0-0.3l0-0.2l1,0.1
					l0,0.2c0,0.1,0,0.2,0,0.3c0,1.1,0.3,2.2,0.8,3.2L14.8,60.7z M53.7,60.5l0-1c1.3,0,2.7-0.1,4-0.2l0.1,1
					C56.4,60.4,55.1,60.5,53.7,60.5z M49.6,60.3l-0.6,0c-1.2-0.1-2.4-0.2-3.4-0.4l0.2-1c1,0.2,2.1,0.3,3.3,0.4l0.6,0L49.6,60.3z
					 M61.9,59.9l-0.1-1c1.3-0.2,2.6-0.4,4-0.7l0.2,1C64.5,59.5,63.2,59.7,61.9,59.9z M41.6,58.9c-1.2-0.4-2.3-0.9-3.3-1.5
					c-0.2-0.1-0.3-0.2-0.5-0.3l0.5-0.9c0.1,0.1,0.3,0.2,0.4,0.3c1,0.5,2,1,3.1,1.4L41.6,58.9z M31.5,58.5L30.7,58
					c0.7-1.1,1.2-2.3,1.7-3.6l0.9,0.3C32.8,56,32.2,57.3,31.5,58.5z M69.9,58.4l-0.2-1c1.3-0.3,2.6-0.7,3.9-1l0.3,1
					C72.5,57.7,71.1,58,69.9,58.4z M77.7,56.1l-0.3-1c1.3-0.4,2.6-0.8,3.8-1.3l0.3,0.9C80.3,55.3,79,55.7,77.7,56.1z M34.4,54.8
					c-0.9-0.7-1.9-1.4-3-2l-0.3-0.2l0.5-0.9c0.1,0.1,0.2,0.1,0.4,0.2c1.1,0.6,2.2,1.4,3.1,2L34.4,54.8z M16.3,53.3l-0.7-0.7
					c0.9-0.9,2.1-1.5,3.7-2l0.3,0.9C18.2,52,17.1,52.5,16.3,53.3z M27.4,51.3c-1.1-0.3-2.3-0.4-3.5-0.4l-0.4,0l0-1
					c1.4,0,2.8,0.1,4.1,0.4L27.4,51.3z M34.3,50.7l-1-0.2c0.2-1.3,0.4-2.6,0.4-3.9l1,0C34.7,48,34.6,49.4,34.3,50.7z"/>
				<path class="st5" d="M85.4,53.4L85,52.5c0.6-0.2,1.3-0.5,1.9-0.7l0.4,0.9C86.7,52.9,86,53.2,85.4,53.4z"/>
			</g>
			<path class="st6" d="M117.1,77.9c-0.5,0-1-0.4-1-0.9c-0.1-0.6,0.4-1,0.9-1.1c6.1-0.6,11.7-3.5,15.8-8.2c0.4-0.4,1-0.5,1.4-0.1
				c0.4,0.4,0.5,1,0.1,1.4C129.9,74.1,123.8,77.3,117.1,77.9C117.2,77.9,117.1,77.9,117.1,77.9z"/>
			<g>
				<g>
					<path class="st7" d="M104.8,77.2L69.7,97.9L34.7,77.2c0,0,0,0,0-0.1c0-0.1,2-1.7,4.9-4.1c0,0,0.1,0,0.1-0.1
						c9.7-7.9,30.1-24,30.1-24s20.4,16.1,30.1,24C102.8,75.4,104.8,77,104.8,77.2C104.8,77.2,104.8,77.2,104.8,77.2z"/>
					<g>
						<path class="st8" d="M84.2,31.9H46.3c-3.2,0-5.9,2.6-5.9,5.9V95c0,3.2,2.6,5.9,5.9,5.9h47.4c3.2,0,5.9-2.6,5.9-5.9V47.3
							L84.2,31.9z"/>
						<path class="st9" d="M84.2,41.4c0,3.2,2.6,5.9,5.9,5.9h9.6L84.2,31.9V41.4z"/>
						<path class="st1" d="M64.5,41.5H51.5c-1.2,0-2.1,0.9-2.1,2.1v13.1c0,1.2,0.9,2.1,2.1,2.1h13.1c1.2,0,2.1-0.9,2.1-2.1V43.6
							C66.6,42.5,65.7,41.5,64.5,41.5z"/>
						<path class="st10" d="M82.4,63.6H51.1c-0.9,0-1.7,0.8-1.7,1.7l0,0c0,0.9,0.8,1.7,1.7,1.7h31.3c0.9,0,1.7-0.8,1.7-1.7l0,0
							C84.1,64.3,83.4,63.6,82.4,63.6z"/>
						<path class="st10" d="M82.4,72H51.1c-0.9,0-1.7,0.8-1.7,1.7l0,0c0,0.9,0.8,1.7,1.7,1.7h31.3c0.9,0,1.7-0.8,1.7-1.7l0,0
							C84.1,72.7,83.4,72,82.4,72z"/>
						<path class="st10" d="M68.2,80.1H51.1c-0.9,0-1.7,0.8-1.7,1.7l0,0c0,0.9,0.8,1.7,1.7,1.7h17.1c0.9,0,1.7-0.8,1.7-1.7l0,0
							C69.9,80.9,69.1,80.1,68.2,80.1z"/>
					</g>
					<g>
						<path class="st11" d="M104.8,77.2v33.7c0,2.4-1.9,4.3-4.3,4.3H38.9c-2.4,0-4.3-1.9-4.3-4.3V77.2l35.1,20.7L104.8,77.2z"/>
						<path class="st3" d="M103.6,113.8L81.1,91.2l-11.3,6.7l-11.3-6.7l-22.6,22.6c0.8,0.8,1.9,1.3,3.1,1.3h61.6
							C101.8,115.2,102.9,114.6,103.6,113.8z"/>
					</g>
				</g>
			</g>
			<g>
				<g>
					<path class="st1" d="M111.9,31c-10.1,1-18.2,9.3-18.9,19.4c-0.4,5,1.1,9.7,3.7,13.5c1,1.4,1.2,3.3,0.5,4.9l-1.7,4l6.8-1.8
						c1.1-0.3,2.3-0.2,3.3,0.3c3.2,1.4,6.7,2,10.4,1.6c9.9-1,17.9-9,18.9-18.9C136.3,40.8,125.2,29.7,111.9,31z"/>
					<g>
						<path class="st8" d="M114.6,62.6l1.2-1.2c0,0-0.9-2.2,2.9-5.8c2.3-2.2,2.8-4.3,2.6-6c-0.3-2.7-2.5-5-5.3-5.3
							c-1.7-0.2-3.8,0.3-6,2.6c-3.7,3.9-5.8,2.9-5.8,2.9l-1.2,1.2L114.6,62.6z"/>
						<path class="st8" d="M105.6,55.6c-0.9,1.3-0.8,3,0.3,4.1c1.1,1.1,2.9,1.2,4.1,0.3L105.6,55.6z"/>
						<path class="st8" d="M122.1,45.8l-0.7,0.7c-0.6-0.9-1.3-1.7-2.2-2.2l0.7-0.7c0.6-0.6,1.6-0.6,2.2,0
							C122.7,44.2,122.7,45.2,122.1,45.8z"/>
					</g>
				</g>
				<path class="st6" d="M113.5,30.9c7.5,2.2,13,9.2,13,17.4c0,10.1-8.2,18.2-18.2,18.2c-5.3,0-10.1-2.3-13.4-5.9
					c0.5,1.1,1.1,2.2,1.9,3.3c1,1.4,1.2,3.3,0.5,4.9l-1.7,4l6.8-1.8c1.1-0.3,2.3-0.2,3.3,0.3c3.2,1.4,6.7,2,10.4,1.6
					c9.9-1,17.9-9,18.9-18.9C136.2,41.3,126.1,30.6,113.5,30.9z"/>
			</g>
			<path class="st2" d="M3.8,13.5L8.4,24c0.2,0.5,0,1.2-0.6,1.4l-0.2,0.1c-0.5,0.2-1.2,0-1.4-0.6L1.8,14.3c-0.2-0.6,0-1.2,0.6-1.4
				l0,0C2.9,12.7,3.5,12.9,3.8,13.5z"/>
		</g>
	</g>
	<g>
		<path class="st0" d="M21.8,87.8c-1.9,0-3.4,1.5-3.4,3.4c0,1.9,1.5,3.4,3.4,3.4s3.4-1.5,3.4-3.4C25.2,89.3,23.6,87.8,21.8,87.8z
			 M21.8,92.5c-0.8,0-1.4-0.6-1.4-1.4c0-0.8,0.6-1.4,1.4-1.4c0.8,0,1.4,0.6,1.4,1.4C23.1,91.9,22.5,92.5,21.8,92.5z"/>
		<path class="st0" d="M112.4,101.4c-1.9,0-3.4,1.5-3.4,3.4c0,1.9,1.5,3.4,3.4,3.4s3.4-1.5,3.4-3.4
			C115.8,103,114.3,101.4,112.4,101.4z M112.4,106.2c-0.8,0-1.4-0.6-1.4-1.4c0-0.8,0.6-1.4,1.4-1.4c0.8,0,1.4,0.6,1.4,1.4
			C113.8,105.6,113.2,106.2,112.4,106.2z"/>
		<path class="st0" d="M140.1,48.9c-1.4,0-2.6,1.2-2.6,2.6c0,1.4,1.2,2.6,2.6,2.6c1.4,0,2.6-1.2,2.6-2.6
			C142.7,50.1,141.5,48.9,140.1,48.9z M140.1,52.5c-0.6,0-1-0.5-1-1c0-0.6,0.5-1,1-1s1,0.5,1,1C141.1,52.1,140.7,52.5,140.1,52.5z"
			/>
		<path class="st0" d="M94.5,7.5c-1.5,0-2.7,1.2-2.7,2.7c0,1.5,1.2,2.7,2.7,2.7c1.5,0,2.7-1.2,2.7-2.7C97.2,8.7,96,7.5,94.5,7.5z
			 M94.5,11.3c-0.6,0-1.1-0.5-1.1-1.1c0-0.6,0.5-1.1,1.1-1.1c0.6,0,1.1,0.5,1.1,1.1C95.6,10.8,95.1,11.3,94.5,11.3z"/>
		<circle class="st0" cx="6.9" cy="74.2" r="2.9"/>
		<circle class="st0" cx="122.4" cy="82.9" r="2.1"/>
		<circle class="st0" cx="53.1" cy="11.4" r="3.1"/>
		<circle class="st0" cx="69.4" cy="121.4" r="2.2"/>
		<circle class="st0" cx="112.6" cy="22.8" r="2.6"/>
		<circle class="st0" cx="19.9" cy="42" r="1.5"/>
		<circle class="st0" cx="141" cy="38.4" r="2.5"/>
		<circle class="st0" cx="5.5" cy="50.9" r="1.6"/>
		<path class="st0" d="M73.7,2.9l1-1C75,1.5,75,1,74.7,0.6s-0.9-0.4-1.3,0l-1,1l-1-1c-0.4-0.4-0.9-0.4-1.3,0c-0.4,0.4-0.4,0.9,0,1.3
			l1,1l-1,1c-0.4,0.4-0.4,0.9,0,1.3c0.4,0.4,0.9,0.4,1.3,0l1-1l1,1c0.4,0.4,0.9,0.4,1.3,0s0.4-0.9,0-1.3L73.7,2.9z"/>
		<path class="st0" d="M4.3,33.7l1-1c0.4-0.4,0.4-0.9,0-1.3C5,31,4.4,31,4,31.4l-1,1l-1-1c-0.4-0.4-0.9-0.4-1.3,0
			c-0.4,0.4-0.4,0.9,0,1.3l1,1l-1,1c-0.4,0.4-0.4,0.9,0,1.3c0.4,0.4,0.9,0.4,1.3,0l1-1l1,1c0.4,0.4,0.9,0.4,1.3,0
			c0.4-0.4,0.4-0.9,0-1.3L4.3,33.7z"/>
		<path class="st0" d="M124.5,95.9l0.9-0.9c0.3-0.3,0.3-0.8,0-1.1c-0.3-0.3-0.8-0.3-1.1,0l-0.9,0.9l-0.9-0.9c-0.3-0.3-0.8-0.3-1.1,0
			c-0.3,0.3-0.3,0.8,0,1.1l0.9,0.9l-0.9,0.9c-0.3,0.3-0.3,0.8,0,1.1c0.3,0.3,0.8,0.3,1.1,0l0.9-0.9l0.9,0.9c0.3,0.3,0.8,0.3,1.1,0
			c0.3-0.3,0.3-0.8,0-1.1L124.5,95.9z"/>
	</g>
</g>
</svg>
