 <svg version="1.1" xmlns="http://www.w3.org/2000/svg" x="0px" y="0px" viewBox="0 0 36 36" xml: space="preserve">
                    <path id="like14" fill="none" stroke="#ffffff" stroke-width="5" stroke-miterlimit="10" d="M18.1,7.3c0.6-0.5,1.2-1.1,1.8-1.5c5.4-3.8,12.8-1.1,14.4,5.3c0.8,3.1,0,5.9-1.7,8.5c-2.1,3.2-5,5.8-8,8.1c-1.8,1.4-3.7,2.7-5.6,4.1c-0.4,0.3-0.8,0.6-1.4,0.2c-4.5-3-8.8-6.3-12.3-10.4c-2.2-2.6-3.7-5.5-3.5-9.1C1.9,9,4.6,5.5,7.9,4.5 C11.7,3.4,15,4.1,17.7,7C17.8,7.1,17.9,7.2,18.1,7.3z" />
                  </svg>