
<svg xmlns="http://www.w3.org/2000/svg" x="0px" y="0px" viewBox="0 0 36 36" style="enable-background:new 0 0 36 36;">
	<g>
		<g><path class="st0" fill="#f6ae8f " d="	M22.1,6.7c0,0.3,0,0.6,0.1,1l-11,5.7c-1.2-1.1-2.8-1.8-4.6-1.8c-3.7,0-6.7,3-6.7,6.7c0,3.7,3,6.7,6.7,6.7
	c1.8,0,3.4-0.7,4.6-1.9l10.9,5.5c0,0.3-0.1,0.6-0.1,0.9c0,3.7,3,6.7,6.7,6.7c3.7,0,6.7-3,6.7-6.7c0-3.7-3-6.7-6.7-6.7
	c-1.8,0-3.4,0.7-4.6,1.9l-10.9-5.5c0-0.3,0.1-0.6,0.1-0.9c0-0.3,0-0.6-0.1-1l11-5.7c1.2,1.1,2.8,1.8,4.6,1.8c3.7,0,6.7-3,6.7-6.7c0-3.7-3-6.7-6.7-6.7C25.1,0,22.1,3,22.1,6.7"/>
		</g>
	</g>
</svg>
